<?xml version="1.0" encoding="UTF-8" standalone="no"?><!DOCTYPE svg PUBLIC "-//W3C//DTD SVG 1.1//EN" "http://www.w3.org/Graphics/SVG/1.1/DTD/svg11.dtd"><svg width="100%" height="100%" viewBox="0 0 512 512" version="1.1" xmlns="http://www.w3.org/2000/svg" xmlns:xlink="http://www.w3.org/1999/xlink" xml:space="preserve" xmlns:serif="http://www.serif.com/" style="fill-rule:evenodd;clip-rule:evenodd;stroke-linecap:round;stroke-linejoin:round;stroke-miterlimit:1.5;"><g id="Pieces"><path id="Bottom-Centre" serif:id="Bottom Centre" d="M64.116,504.454c-11.522,-20.405 -16.014,-40.699 -16.014,-59.375c0,-73.854 26.002,-145.386 85.006,-188.049c72.485,21.553 146.409,39.613 214.373,64.58c2.936,1.079 7.596,12.105 10.704,12.022c10.643,67.411 1.879,135.041 -61.877,175.855c-57.864,0.579 -96.061,-0.722 -190.873,-1.671c-16.139,-0.162 -29.796,-1.119 -41.319,-3.362Z" style="fill:#00355b;"/><path id="Lower-Right" serif:id="Lower Right" d="M296.308,509.487c38.114,-48.911 61.048,-109.793 61.877,-175.855c54.254,-1.452 105.304,-15.496 150.182,-39.237c-0.363,30.18 -1.098,64.12 -2.238,115.226c-1.736,77.759 -20.635,94.849 -95.042,97.195c-50.28,1.584 -85.114,2.375 -114.779,2.671Z" style="fill:#004b74;"/><path id="Centre" d="M305.109,162.245c41.585,32.839 62.547,74.411 62.547,136.635c-0,1.239 -9.455,33.516 -9.471,34.752c-3.108,0.083 -6.226,0.125 -9.355,0.125c-82.134,-0 -157.408,-28.857 -215.722,-76.727c32.335,-60.935 103.273,-98.657 172.001,-94.785Z" style="fill:#005a90;"/><path id="Centre-Right" serif:id="Centre Right" d="M508.367,294.395c-44.878,23.741 -95.928,37.785 -150.182,39.237c0.016,-1.236 0.024,-2.473 0.024,-3.712c-0,-62.224 -19.612,-119.991 -53.1,-167.675c16.713,-2.861 33.903,-4.352 51.445,-4.352c55.431,0 107.344,14.892 151.802,40.815c0.368,37.625 0.385,64.67 0.011,95.687Z" style="fill:#009acf;"/><path id="Left-Top" serif:id="Left Top" d="M133.108,257.03c-61.031,-42.728 -117.201,-153.789 -116.636,-218.927c13.62,-1.81 25.792,-4.307 39.783,-4.307c103.204,-0 194.385,50.886 248.854,128.449c-68.053,11.648 -128.195,45.996 -172.001,94.785Z" style="fill:#004e86;"/><path id="Left" d="M64.116,504.454c-40.961,-7.972 -54.953,-32.189 -57.558,-94.666c-6.159,-147.704 -6.154,-158.351 -2,-308.48c0.778,-28.118 5.71,-49.539 11.914,-63.205c10.063,86.855 51.708,165.626 116.636,218.927c-46.182,51.435 -74.209,118.919 -74.209,192.772c-0,18.677 1.792,36.946 5.217,54.652Z" style="fill:#003c6c;"/><path id="Upper" d="M508.356,198.708c-44.458,-25.923 -96.371,-40.815 -151.802,-40.815c-17.542,0 -34.732,1.491 -51.445,4.352c-54.469,-77.563 -145.65,-128.449 -248.854,-128.449c-13.095,-0 -28.254,2.718 -39.783,4.307c11.963,-19.911 39.691,-27.671 88.544,-30.399c151.399,-8.452 161.085,-9.068 306.236,-1c71.151,3.956 94.779,18.174 95.877,96.028c0.563,39.93 0.976,70.398 1.227,95.976Z" style="fill:#00ceff;"/></g><path d="M437.12,145.353c1.072,49.611 2.946,170.576 -0,220.847c-2.696,46 -24.426,68.38 -70.435,70.434c-45.732,2.042 -166.845,5.766 -221.847,0c-52.471,-5.5 -65.079,-24.199 -70.314,-70.314c-5.691,-50.133 -5.889,-171.269 0,-221.271c5.06,-42.958 20.619,-67.391 70.011,-70.01c49.791,-2.641 171.457,-4.425 222.27,-0c43.644,3.8 69.366,26.44 70.315,70.314Zm-45.929,0c-0,-13.459 -12.928,-23.253 -24.386,-24.385c-41.109,-4.065 -181.212,-4.014 -222.27,-0c-11.316,1.106 -22.727,12.828 -24.082,24.081c-4.98,41.348 -4.876,180.762 -0,221.271c1.372,11.395 12.928,23.251 24.385,24.385c41.039,4.065 180.788,4.085 221.847,0c11.513,-1.145 23.359,-13.028 24.506,-24.505c4.084,-40.892 4.927,-146.821 -0,-220.847Z" style="fill:#fff;"/><g><ellipse cx="203.249" cy="248.18" rx="31.677" ry="31.547" style="fill:#fff;"/><ellipse cx="205.621" cy="248.216" rx="25.918" ry="25.811" style="fill:#dd1b52;"/><ellipse cx="203.249" cy="248.18" rx="31.677" ry="31.547" style="fill:none;stroke:#800c2d;stroke-width:12px;"/><ellipse cx="317.411" cy="248.529" rx="31.677" ry="31.547" style="fill:#fff;"/><ellipse cx="314.036" cy="248.891" rx="25.918" ry="25.811" style="fill:#dd1b52;"/><ellipse cx="317.411" cy="248.529" rx="31.677" ry="31.547" style="fill:none;stroke:#800c2d;stroke-width:12px;"/><ellipse cx="201.216" cy="289.342" rx="31.677" ry="31.547" style="fill:#fff;"/><ellipse cx="204.266" cy="287.354" rx="25.918" ry="25.811" style="fill:#dd1b52;"/><ellipse cx="201.216" cy="289.342" rx="31.677" ry="31.547" style="fill:none;stroke:#800c2d;stroke-width:12px;"/><ellipse cx="319.444" cy="289.692" rx="31.677" ry="31.547" style="fill:#fff;"/><ellipse cx="316.068" cy="288.029" rx="25.918" ry="25.811" style="fill:#dd1b52;"/><ellipse cx="319.444" cy="289.692" rx="31.677" ry="31.547" style="fill:none;stroke:#800c2d;stroke-width:12px;"/><ellipse cx="224.255" cy="324.432" rx="31.677" ry="31.547" style="fill:#fff;"/><ellipse cx="227.304" cy="321.769" rx="25.918" ry="25.811" style="fill:#dd1b52;"/><ellipse cx="224.255" cy="324.432" rx="31.677" ry="31.547" style="fill:none;stroke:#800c2d;stroke-width:12px;"/><ellipse cx="296.406" cy="324.781" rx="31.677" ry="31.547" style="fill:#fff;"/><ellipse cx="293.03" cy="321.094" rx="25.918" ry="25.811" style="fill:#dd1b52;"/><ellipse cx="296.406" cy="324.781" rx="31.677" ry="31.547" style="fill:none;stroke:#800c2d;stroke-width:12px;"/><ellipse cx="231.708" cy="273.147" rx="31.677" ry="31.547" style="fill:#fff;"/><ellipse cx="235.435" cy="271.159" rx="25.918" ry="25.811" style="fill:#dd1b52;"/><ellipse cx="231.708" cy="273.147" rx="31.677" ry="31.547" style="fill:none;stroke:#800c2d;stroke-width:12px;"/><ellipse cx="288.952" cy="273.497" rx="31.677" ry="31.547" style="fill:#fff;"/><ellipse cx="285.577" cy="272.509" rx="25.918" ry="25.811" style="fill:#dd1b52;"/><ellipse cx="288.952" cy="273.497" rx="31.677" ry="31.547" style="fill:none;stroke:#800c2d;stroke-width:12px;"/><ellipse cx="226.287" cy="232.334" rx="31.677" ry="31.547" style="fill:#fff;"/><ellipse cx="229.337" cy="229.997" rx="25.918" ry="25.811" style="fill:#dd1b52;"/><ellipse cx="226.287" cy="232.334" rx="31.677" ry="31.547" style="fill:none;stroke:#800c2d;stroke-width:12px;"/><ellipse cx="293.369" cy="231.684" rx="31.677" ry="31.547" style="fill:#fff;"/><ellipse cx="290.32" cy="230.672" rx="25.918" ry="25.811" style="fill:#dd1b52;"/><ellipse cx="293.369" cy="231.684" rx="31.677" ry="31.547" style="fill:none;stroke:#800c2d;stroke-width:12px;"/><ellipse cx="260.167" cy="348.423" rx="31.677" ry="31.547" style="fill:#fff;"/><ellipse cx="259.828" cy="343.338" rx="25.918" ry="25.811" style="fill:#dd1b52;"/><ellipse cx="260.167" cy="348.423" rx="31.677" ry="31.547" style="fill:none;stroke:#800c2d;stroke-width:12px;"/><ellipse cx="260.845" cy="237.757" rx="31.677" ry="31.547" style="fill:#fff;"/><ellipse cx="261.183" cy="234.721" rx="25.918" ry="25.811" style="fill:#dd1b52;"/><ellipse cx="260.845" cy="237.757" rx="31.677" ry="31.547" style="fill:none;stroke:#800c2d;stroke-width:12px;"/><ellipse cx="260.167" cy="301.863" rx="31.677" ry="31.547" style="fill:#fff;"/><ellipse cx="259.828" cy="299.476" rx="25.918" ry="25.811" style="fill:#dd1b52;"/><ellipse cx="260.167" cy="301.863" rx="31.677" ry="31.547" style="fill:none;stroke:#800c2d;stroke-width:12px;"/></g><path d="M257.846,181.602c-5.802,1.86 -14.928,2.801 -26.547,1.917c-18.447,-1.403 -31.573,-15.29 -31.573,-15.29l7.12,-4.664c7.762,6.001 17.11,10.698 25.654,11.983c5.23,0.786 9.9,0.733 13.86,0.283c-7.748,-4.365 -12.985,-12.665 -12.985,-22.178c0,-14.043 11.412,-25.444 25.468,-25.444c14.056,0 25.468,11.401 25.468,25.444c-0,9.86 -5.627,18.418 -13.844,22.641c4.034,0.487 8.808,0.427 14.214,-0.243c17.333,-2.148 24.393,-12.486 24.393,-12.486l7.625,3.152c-0,0 -6.649,14.452 -30.817,17.306c-12.618,1.49 -22.393,-0.409 -28.036,-2.421Zm6.464,-11.444c6.928,-2.292 11.932,-8.819 11.932,-16.505c-0,-9.594 -7.797,-17.382 -17.399,-17.382c-9.603,-0 -17.399,7.788 -17.399,17.382c0,9.593 7.796,17.382 17.399,17.382c1.281,0 2.53,-0.139 3.733,-0.402l1.5,-0.874l0.234,0.399Z" style="fill:#7fd858;"/></svg>